<?xml version="1.0" encoding="UTF-8"?>
<svg width="150" height="150" viewBox="0 0 1000 1000" xmlns="http://www.w3.org/2000/svg">
    <path fill="#25D366" d="M733.9 321.4c-43.2-43.2-100.6-67-161.8-67-126 0-228.5 102.5-228.5 228.5 0 40.2 10.5 79.5 30.5 114.1l-32.4 118.4 121.2-31.8c33.3 18.2 70.8 27.8 109 27.8h0.1c126 0 228.5-102.5 228.5-228.5 0-61-23.8-118.4-67-161.5zM572.1 676.4h-0.1c-34.1 0-67.5-9.2-96.6-26.4l-6.9-4.1-71.7 18.8 19.1-69.8-4.5-7.2c-18.9-30.1-28.9-64.8-28.9-100.4 0-104.3 84.9-189.2 189.3-189.2 50.5 0 98 19.7 133.7 55.4s55.4 83.1 55.4 133.7c0 104.3-84.9 189.2-189.2 189.2zm103.7-141.6c-5.7-2.8-33.7-16.6-38.9-18.5s-9-2.8-12.8 2.8c-3.8 5.7-14.8 18.5-18.1 22.3-3.3 3.8-6.6 4.3-12.3 1.4-33.7-16.8-55.8-30.1-78.1-68.3-5.9-10.1 5.9-9.4 16.8-31.3 1.9-3.8 0.9-7.1-0.5-9.9s-12.8-30.8-17.6-42.2c-4.6-11.1-9.3-9.6-12.8-9.7-3.3-0.1-7.1-0.1-10.9-0.1s-9.9 1.4-15.1 7.1c-5.2 5.7-19.9 19.4-19.9 47.4s20.4 55 23.2 58.8c2.8 3.8 39.9 61 96.7 85.5 35.9 15.5 50 16.8 67.9 14.2 10.9-1.6 33.7-13.8 38.4-27.1 4.7-13.3 4.7-24.7 3.3-27.1-1.4-2.3-5.2-3.7-10.9-6.5z"/>
</svg> 